<svg xmlns="http://www.w3.org/2000/svg" viewBox="0 0 32 32"><g data-name="Layer 5" fill="#000000" class="color000 svgShape"><path fill="#ff64c8" d="M23,16.29a3,3,0,0,0-4.24,0L7,28c1.69,0,6.78,0,18,0a5,5,0,0,0,4.65-3.21c0-.12.09-.25.13-.38L29.9,24v0a4,4,0,0,0,.07-.48.62.62,0,0,0,0-.13.15.15,0,0,0,0-.06h0Z" class="colorff64c8 svgShape"/><path fill="#5233ff" d="M30,8.52A5,5,0,0,0,25,4H7A5,5,0,0,0,2,8.52,3.25,3.25,0,0,0,2,9V23a4.67,4.67,0,0,0,0,.52,4.91,4.91,0,0,0,.1.5v0A7,7,0,0,0,3.9,26.88s0,0,0,0a3.6,3.6,0,0,0,.85.54L17.32,14.86a5,5,0,0,1,7.08,0l5.6,5.6V9A3.25,3.25,0,0,0,30,8.52ZM8,12a2,2,0,1,1,2-2A2,2,0,0,1,8,12Z" class="color5233ff svgShape"/></g></svg>