<svg xmlns="http://www.w3.org/2000/svg" fill="#5233ff" viewBox="0 0 32 32"><path fill="#5233ff" fill-rule="evenodd" d="M14.8858 3.36887C15.6011 3.08277 16.3989 3.08277 17.1142 3.36887L25.1142 6.56887C26.2531 7.02446 27 8.12758 27 9.3543V16.1626C27 22.3594 22.626 27.6948 16.5495 28.9101L16 29.02L15.4505 28.9101C9.37398 27.6948 5 22.3594 5 16.1626V9.3543C5 8.12758 5.74685 7.02446 6.88583 6.56887L14.8858 3.36887ZM16 12.0002C16.5523 12.0002 17 12.448 17 13.0002V15H19C19.5523 15 20 15.4477 20 16C20 16.5523 19.5523 17 19 17H17V19.0002C17 19.5525 16.5523 20.0002 16 20.0002C15.4477 20.0002 15 19.5525 15 19.0002V17H13C12.4477 17 12 16.5523 12 16C12 15.4477 12.4477 15 13 15H15V13.0002C15 12.448 15.4477 12.0002 16 12.0002Z" clip-rule="evenodd" class="color5233FF svgShape"/></svg>